<svg height='100px' width='100px'  fill="#000000" xmlns="http://www.w3.org/2000/svg" xmlns:xlink="http://www.w3.org/1999/xlink" version="1.0" x="0px" y="0px" viewBox="0 0 100 100" enable-background="new 0 0 100 100" xml:space="preserve"><g><path fill="#000000" d="M73.23,25.663h-9.431c1.829-1.444,3.455-3.402,4.787-5.733c4.001-7.001,3.874-14.604-3.129-18.605   C60.218-1.669,54.316,0.765,50,5.113c-4.316-4.348-10.219-6.783-15.458-3.789c-7.002,4.001-7.129,11.604-3.128,18.605   c1.332,2.331,2.958,4.289,4.787,5.733H26.77c-7.698,0-13.938,6.24-13.938,13.938v17.92v10.62v17.921   c0,7.698,6.24,13.938,13.938,13.938h17.92h10.62H73.23c7.698,0,13.938-6.24,13.938-13.938V68.141v-10.62v-17.92   C87.169,31.903,80.929,25.663,73.23,25.663z M18.153,39.601c0-4.751,3.865-8.616,8.616-8.616h17.92v26.537H18.153V39.601z    M26.77,94.678c-4.751,0-8.616-3.865-8.616-8.616V68.141H44.69v26.537H26.77z M81.847,86.062c0,4.751-3.865,8.616-8.616,8.616   H55.31V68.141h26.537V86.062z M55.31,57.521V30.985H73.23c4.751,0,8.616,3.865,8.616,8.616v17.92H55.31z"></path></g></svg>