<svg id="noballoon" xmlns="http://www.w3.org/2000/svg" viewBox="0 0 385.96 385.96"><defs><style>.cls-1{fill:#fff;}.cls-2{fill:#231f20;}</style></defs><title>noballoon-01</title><path d="M158.54,61.32c11.08,1.34-15.66,36.11,44.45,27.25,33.8,2.21,61.26,27.76,99.3,34.73,12.26,8,48.37-25.17,32.15,3.89-5.37,17.33-29.88,23.51-38.74,37-.95,1.69,14.23,31.41-17.16,92.64-12.84,30.41-71.44,32.26-82.23,63.77,27.4,4.44-13.34,31.13-14.05,10.61,42-45.95-112.34-49.78-119.5-88.92,2-.23-17.62-20.53-6.17-18.8,22.68,1.26,6.49-20.57,32.28-86.95,3.64-4.15,23.57-21.13,26.9-32.79.24-.72-22.33-14.85-13.46-23.94C115.93,61.84,109.54,151.29,158.54,61.32Zm-17.33,36h0C141.64,96.82,139.2,96.16,141.21,97.29ZM132.39,100c-.53-.34-.34-.75-1.37.47C131.58,100.71,131.31,101,132.39,100Z"/><path class="cls-1" d="M141.21,97.29c-.2-.41-.31-.61,0,0C141.36,97.81,137.63,98.18,141.21,97.29Z"/><path class="cls-1" d="M132.39,100h0C132.54,100.18,129.84,101.51,132.39,100Z"/><path class="cls-2" d="M193,386C86.57,386,0,299.39,0,193S86.57,0,193,0,386,86.57,386,193,299.39,386,193,386Zm0-356C103.11,30,30,103.11,30,193s73.11,163,163,163,163-73.11,163-163S282.85,30,193,30Z"/><path class="cls-2" d="M42.54,6,190.16,153.66l142-142,37.69,37.69-142,142L376.72,340.22l-40.21,40.2L187.64,231.55l-142,142L8,335.82l142-142L2.34,46.25Z"/></svg>