<svg id="noballoon" xmlns="http://www.w3.org/2000/svg" viewBox="0 0 434.45 448.49"><defs><style>.cls-1{fill:#fff;}.cls-2{fill:#231f20;}</style></defs><title>noballoon</title><path d="M178.4,107c11.07,1.34-15.66,36.11,44.44,27.25,33.81,2.21,61.27,27.76,99.3,34.73,12.27,8,48.38-25.17,32.16,3.89-5.37,17.33-29.89,23.51-38.74,37-1,1.69,14.22,31.41-17.17,92.64-12.84,30.4-71.44,32.25-82.22,63.77,27.39,4.44-13.35,31.13-14,10.61,42-45.95-112.34-49.79-119.51-88.92,2-.23-17.61-20.53-6.17-18.8,22.69,1.25,6.5-20.57,32.29-87,3.63-4.14,23.56-21.13,26.9-32.78.24-.72-22.34-14.86-13.46-23.94C135.78,107.55,129.4,197,178.4,107Zm-17.33,36h0C161.5,142.53,159.05,141.87,161.07,143Zm-8.83,2.68c-.53-.33-.33-.74-1.36.48C151.44,146.42,151.17,146.65,152.24,145.68Z"/><path class="cls-1" d="M161.07,143h0C161.21,143.52,157.48,143.89,161.07,143Z"/><path class="cls-1" d="M152.24,145.68h0C152.39,145.89,149.69,147.22,152.24,145.68Z"/><path class="cls-2" d="M212.84,431.67c-106.41,0-193-86.57-193-193s86.58-193,193-193,193,86.57,193,193S319.25,431.67,212.84,431.67Zm0-356c-89.87,0-163,73.11-163,163s73.12,163,163,163,163-73.11,163-163S302.71,75.71,212.84,75.71Z"/><path class="cls-2" d="M62.4,51.75,210,199.37l142-142,37.69,37.69-142,142L396.57,385.93l-40.2,40.2L207.5,277.26l-142,142L27.85,381.53l142-142L22.19,92Z"/></svg>