<svg xmlns="http://www.w3.org/2000/svg" xmlns:xlink="http://www.w3.org/1999/xlink" version="1.1" x="0px" y="0px" viewBox="0 0 100 125" enable-background="new 0 0 100 100" xml:space="preserve"><g><path fill="#000000" d="M95.812,28.894c-0.779-1.488-7.761-14.701-11.782-18.724c-2.318-2.316-14.356-5.638-21.353-7.417   c-0.258-0.071-0.524-0.107-0.793-0.107c-1.065,0-2.053,0.562-2.604,1.474c-0.187,0.266-2.408,3.202-9.639,3.202   c-7.147,0-9.195-2.781-9.365-3.032c-0.547-0.95-1.546-1.535-2.631-1.535c-0.275,0-0.549,0.038-0.815,0.113   c-1.798,0.464-15.947,4.193-19.981,7.607c-4.5,3.808-12.373,16.978-13.256,18.467l-0.018,0.03l-0.018,0.031   c-0.462,0.831-0.512,1.806-0.137,2.675c0.342,0.813,1.038,1.446,1.9,1.715c0.087,0.028,2.416,0.78,7.181,3.355   c3.991,2.151,6.85,4.355,7.382,4.775l0.066,0.052l0.011,0.008c0.531,0.403,1.187,0.624,1.857,0.624c0.167,0,0.335-0.014,0.5-0.041   l0.067-0.011l0.067-0.015c0.294-0.064,0.573-0.169,0.83-0.31c0.464,8.564,0.769,18.525,0.388,26.893   c-0.131,2.946-0.552,16.486-0.71,21.583c-0.032,1.019-0.051,1.652-0.054,1.726c-0.05,1.569,1.074,2.91,2.613,3.134l0.056,0.008   l0.022,0.002c2.001,0.26,12.115,1.484,24.922,1.484c8.259,0,16.075-0.502,23.232-1.492c1.543-0.226,2.666-1.556,2.631-3.097   c-0.003-0.097-0.019-0.604-0.045-1.432c-0.146-4.675-0.588-18.9-0.724-21.915c-0.382-8.401-0.07-18.44,0.401-27.08   c0.268,0.154,0.562,0.269,0.873,0.337l0.086,0.019l0.087,0.013c0.153,0.023,0.311,0.035,0.466,0.035   c0.72,0,1.406-0.247,1.945-0.697c0.549-0.433,3.364-2.603,7.369-4.762c4.783-2.587,7.152-3.348,7.176-3.355   c0.834-0.242,1.545-0.87,1.907-1.71l0.034-0.078l0.028-0.08C96.274,30.553,96.211,29.652,95.812,28.894z M37.502,5.319   c0.048-0.015,0.096-0.022,0.143-0.022c0.185,0,0.35,0.113,0.439,0.281c0.023,0.04,2.407,4.286,11.557,4.286   c9.166,0,11.779-4.368,11.805-4.413c0.089-0.159,0.261-0.263,0.438-0.263c0.044,0,0.089,0.006,0.132,0.02   c0,0,0.793,0.202,2.057,0.538c-2.862,4.964-10.096,6.703-16.292,6.186c-5.993-0.503-10.678-2.921-12.074-6.129   C36.816,5.496,37.502,5.319,37.502,5.319z M73.402,92.65c-7.012,0.97-14.709,1.468-22.884,1.468   c-13.911,0-24.528-1.457-24.636-1.468c-0.256-0.037-0.446-0.262-0.438-0.521c0.001-0.027,0.014-0.443,0.036-1.132   c10.187,0.942,16.66,1.449,23.439,1.449c6.689,0,13.699-0.495,24.884-1.548c0.022,0.749,0.037,1.202,0.038,1.23   C73.847,92.389,73.656,92.613,73.402,92.65z M93.591,30.516c-0.061,0.14-0.177,0.247-0.326,0.29   c-0.025,0.007-2.515,0.779-7.63,3.546c-4.622,2.492-7.751,5.015-7.781,5.039c-0.089,0.08-0.207,0.116-0.327,0.116   c-0.031,0-0.062-0.002-0.093-0.007c-0.146-0.032-0.273-0.125-0.345-0.259l-3.113-5.716c-0.72,10.252-1.409,24.139-0.901,35.314   c0.122,2.718,0.5,14.73,0.675,20.358c-22.498,2.119-27.996,1.97-48.216,0.097c0.174-5.585,0.553-17.722,0.675-20.455   c0.505-11.105-0.17-24.895-0.882-35.079l-3.066,5.639c-0.072,0.135-0.203,0.226-0.351,0.258c-0.03,0.005-0.061,0.007-0.091,0.007   c-0.116,0-0.232-0.036-0.331-0.115c-0.033-0.022-3.156-2.547-7.777-5.038c-5.118-2.767-7.61-3.539-7.632-3.546   c-0.144-0.045-0.264-0.153-0.324-0.295c-0.06-0.139-0.05-0.298,0.025-0.433c0,0,8.407-14.181,12.711-17.823   c2.608-2.207,10.83-4.788,15.563-6.147c1.558,3.936,6.749,6.784,13.585,7.357c0.741,0.062,1.509,0.095,2.292,0.095   c6.004,0,12.935-1.945,15.824-7.522c5.406,1.472,14.934,4.228,16.477,5.77c3.864,3.865,11.332,18.111,11.332,18.111   C93.635,30.214,93.642,30.373,93.591,30.516z"/></g><text x="0" y="115" fill="#000000" font-size="5px" font-weight="bold" font-family="'Helvetica Neue', Helvetica, Arial-Unicode, Arial, Sans-serif">Created by Kieran Wallace</text><text x="0" y="120" fill="#000000" font-size="5px" font-weight="bold" font-family="'Helvetica Neue', Helvetica, Arial-Unicode, Arial, Sans-serif">from the Noun Project</text></svg>