<?xml version="1.0" encoding="utf-8"?>
<!-- Generator: Adobe Illustrator 24.0.1, SVG Export Plug-In . SVG Version: 6.00 Build 0)  -->
<svg version="1.1" id="glass" xmlns="http://www.w3.org/2000/svg" xmlns:xlink="http://www.w3.org/1999/xlink" x="0px" y="0px"
	 viewBox="0 0 62.2 167.52" style="enable-background:new 0 0 62.2 167.52;" xml:space="preserve">
<g>
	<g>
		<path d="M49.09,124.08C48.6,101.23,62.2,49.67,62.2,29.58c0-8.85-3.44-21.88-3.44-21.88H29.74h-1.9H3.44C3.44,7.7,0,20.73,0,29.58
			c0,20.09,13.6,71.65,13.11,94.5c-0.49,22.86-10.61,34.09-10.65,36.54c-0.06,4.25,0.74,4.91,6.15,5.9
			c5.28,0.97,20.48,0.99,21.18,0.99c0.82,0,18.53-0.02,23.81-0.99c5.41-0.99,6.21-1.65,6.15-5.9
			C59.7,158.17,49.58,146.95,49.09,124.08z M3.1,26.08l2.92-15h50.71l2.29,15H3.1z"/>
		<path d="M35.75,167.52c0,0-0.02,0-0.03,0c-0.02,0-0.04,0-0.04,0H35.75z"/>
	</g>
	<path d="M8.11,5.46c5.43-3.62,9.32-3.97,11.95-3.55c1.21,0.19,2.23,0.56,5,0.97c3.69,0.54,5.54,0.81,7.43,0.32
		c3.2-0.82,3.1-2.53,6.13-3.07c3-0.53,5.67,0.68,6.3,0.97c2.2,1,2.33,1.93,5,3.07c0.43,0.18,1.94,0.8,4.04,1.13"/>
</g>
</svg>
