<?xml version="1.0" encoding="utf-8"?>
<!-- Generator: Adobe Illustrator 24.0.1, SVG Export Plug-In . SVG Version: 6.00 Build 0)  -->
<svg version="1.1" id="glass" xmlns="http://www.w3.org/2000/svg" xmlns:xlink="http://www.w3.org/1999/xlink" x="0px" y="0px"
	 viewBox="0 0 85.72 188.09" style="enable-background:new 0 0 85.72 188.09;" xml:space="preserve">
<g>
	<g>
		<g>
			<path d="M54.5,172.37l-5.85-4.55l-2.28-5.2l1.3-43.26l7.16-20.82l30.9-21.14L69.46,14.96l2.28-8.78h-6.81H20.8h-6.81l2.28,8.78
				L0,77.41l30.9,21.14l7.16,20.82l1.3,43.26l-2.28,5.2l-5.85,4.55l-20.82,5.85c0,0-2.28,3.58-1.3,3.9
				c0.98,0.33,18.21,6.83,33.82,5.85h2.86c15.61,0.98,29.85-5.53,30.82-5.85c0.98-0.33-1.3-3.9-1.3-3.9L54.5,172.37z M18.16,24.67
				l1.82-9.54l-1.82-6.36h48.9l-2.73,6.36l3.63,9.54H18.16z"/>
		</g>
	</g>
	<g>
		<path d="M19.37,3.45H63.5h1.68C57.85,2.7,50.14,0,42.17,0S26.49,2.7,19.16,3.45H19.37z"/>
	</g>
</g>
</svg>
