<?xml version="1.0" encoding="utf-8"?>
<!-- Generator: Adobe Illustrator 24.0.1, SVG Export Plug-In . SVG Version: 6.00 Build 0)  -->
<svg version="1.1" id="Layer_1" xmlns="http://www.w3.org/2000/svg" xmlns:xlink="http://www.w3.org/1999/xlink" x="0px" y="0px"
	 viewBox="0 0 93 94" style="enable-background:new 0 0 93 94;" xml:space="preserve">
<g>
	<path d="M92.6,26.2c-0.8-1.5-7.8-14.7-11.8-18.7c-2.3-2.3-14.4-5.6-21.4-7.4C59.2,0,59,0,58.7,0c-1.1,0-2.1,0.6-2.6,1.5
		c-0.2,0.3-2.4,3.2-9.6,3.2c-7.1,0-9.2-2.8-9.4-3c-0.5-1-1.5-1.5-2.6-1.5c-0.3,0-0.5,0-0.8,0.1c-1.8,0.5-15.9,4.2-20,7.6
		c-4.5,3.8-12.4,17-13.3,18.5l0,0l0,0c-0.5,0.8-0.5,1.8-0.1,2.7c0.3,0.8,1,1.4,1.9,1.7c0.1,0,2.4,0.8,7.2,3.4c4,2.2,6.9,4.4,7.4,4.8
		l0.1,0.1l0,0c0.5,0.4,1.2,0.6,1.9,0.6c0.2,0,0.3,0,0.5,0l0.1,0l0.1,0c0.3-0.1,0.6-0.2,0.8-0.3c0.5,8.6,0.8,18.5,0.4,26.9
		c-0.1,2.9-0.6,16.5-0.7,21.6c0,1-0.1,1.7-0.1,1.7c0,1.6,1.1,2.9,2.6,3.1l0.1,0l0,0c2,0.3,12.1,1.5,24.9,1.5
		c8.3,0,16.1-0.5,23.2-1.5c1.5-0.2,2.7-1.6,2.6-3.1c0-0.1,0-0.6,0-1.4c-0.1-4.7-0.6-18.9-0.7-21.9c-0.4-8.4-0.1-18.4,0.4-27.1
		c0.3,0.2,0.6,0.3,0.9,0.3l0.1,0l0.1,0c0.2,0,0.3,0,0.5,0c0.7,0,1.4-0.2,1.9-0.7c0.5-0.4,3.4-2.6,7.4-4.8c4.8-2.6,7.2-3.3,7.2-3.4
		c0.8-0.2,1.5-0.9,1.9-1.7l0-0.1l0-0.1C93.1,27.9,93,27,92.6,26.2z M34.3,2.7c0,0,0.1,0,0.1,0c0.2,0,0.3,0.1,0.4,0.3
		c0,0,2.4,4.3,11.6,4.3c9.2,0,11.8-4.4,11.8-4.4c0.1-0.2,0.3-0.3,0.4-0.3c0,0,0.1,0,0.1,0c0,0,0.8,0.2,2.1,0.5
		c-2.9,5-10.1,6.7-16.3,6.2c-6-0.5-10.7-2.9-12.1-6.1C33.6,2.9,34.3,2.7,34.3,2.7z M70.2,90c-7,1-14.7,1.5-22.9,1.5
		c-13.9,0-24.5-1.5-24.6-1.5c-0.3,0-0.4-0.3-0.4-0.5c0,0,0-0.4,0-1.1c10.2,0.9,16.7,1.4,23.4,1.4c6.7,0,13.7-0.5,24.9-1.5
		c0,0.7,0,1.2,0,1.2C70.7,89.7,70.5,90,70.2,90z M90.4,27.9c-0.1,0.1-0.2,0.2-0.3,0.3c0,0-2.5,0.8-7.6,3.5c-4.6,2.5-7.8,5-7.8,5
		c-0.1,0.1-0.2,0.1-0.3,0.1c0,0-0.1,0-0.1,0c-0.1,0-0.3-0.1-0.3-0.3l-3.1-5.7c-0.7,10.3-1.4,24.1-0.9,35.3
		c0.1,2.7,0.5,14.7,0.7,20.4c-22.5,2.1-28,2-48.2,0.1c0.2-5.6,0.6-17.7,0.7-20.5c0.5-11.1-0.2-24.9-0.9-35.1l-3.1,5.6
		C19,36.9,18.9,37,18.7,37c0,0-0.1,0-0.1,0c-0.1,0-0.2,0-0.3-0.1c0,0-3.2-2.5-7.8-5c-5.1-2.8-7.6-3.5-7.6-3.5
		c-0.1,0-0.3-0.2-0.3-0.3c-0.1-0.1-0.1-0.3,0-0.4c0,0,8.4-14.2,12.7-17.8C17.9,7.6,26.2,5,30.9,3.6c1.6,3.9,6.7,6.8,13.6,7.4
		c0.7,0.1,1.5,0.1,2.3,0.1c6,0,12.9-1.9,15.8-7.5C68,5,77.5,7.8,79.1,9.3c3.9,3.9,11.3,18.1,11.3,18.1
		C90.5,27.6,90.5,27.7,90.4,27.9z"/>
</g>
</svg>
