<?xml version="1.0" encoding="utf-8"?>
<!-- Generator: Adobe Illustrator 24.0.1, SVG Export Plug-In . SVG Version: 6.00 Build 0)  -->
<svg version="1.1" id="Layer_1" xmlns="http://www.w3.org/2000/svg" xmlns:xlink="http://www.w3.org/1999/xlink" x="0px" y="0px"
	 viewBox="0 0 100.7 90.3" style="enable-background:new 0 0 100.7 90.3;" xml:space="preserve">
<style type="text/css">
	.st0{fill-rule:evenodd;clip-rule:evenodd;}
</style>
<g>
	<path class="st0" d="M62.6,0h-1.7l-0.3,1.1c-1.2,5-5.4,8.5-10.3,8.5c-4.9,0-9.2-3.5-10.3-8.5L39.8,0h-1.9l-0.2,0.1
		C36.3,0.5,5,10.1,3.6,10.6l0,0l0,0c-1.2,0.5-2.3,1.7-3,3.2c-0.7,1.7-0.7,3.5-0.1,5l0-0.1c1.5,4.5,3.3,11.5,4,14.1l0.3,1.1
		c0.5,1.9,2.8,3.2,5.1,2.9c0,0,7.8-0.8,11.3-1.2c0,3.1,0,48.7,0,48.7c0,2.9,2,6,5.8,6h46.9c3.8,0,5.9-3.1,5.9-6c0,0,0-45.6,0-48.7
		c2.5,0.3,11.3,1.2,11.3,1.2c2.3,0.2,4.5-1,5.1-2.9l0.3-1.1c0.7-2.6,2.5-9.5,4-14.1l0,0.1c0.7-1.6,0.6-3.3-0.1-5
		c-0.6-1.5-1.8-2.7-3-3.2l0,0l0,0C95.7,10.1,64.4,0.5,63,0.1L62.8,0C62.8,0,62.6,0,62.6,0z M37.5,3.2c1.9,5.6,7,9.4,12.8,9.4
		c5.8,0,10.9-3.8,12.8-9.4c5.4,1.7,31.2,9.6,33,10.2c0.3,0.1,0.9,0.6,1.3,1.6c0.1,0.3,0.3,0.9,0.3,1.5c0,0.4-0.1,0.8-0.2,1.2l0,0.1
		l0,0.1c-1.5,4.6-3.3,11.6-4,14.2l-0.3,1.1c-0.1,0.3-0.9,0.9-1.9,0.8l-14.5-1.5v52c0,1-0.6,3-2.9,3H26.9c-2.3,0-2.9-2-2.9-3v-52
		L9.5,33.8c-1,0.1-1.8-0.5-1.9-0.8l-0.3-1c-0.7-2.6-2.6-9.6-4-14.2l0-0.1l0-0.1C3,17.3,3,16.9,3,16.5c0-0.6,0.2-1.2,0.3-1.5
		c0.4-0.9,1-1.5,1.3-1.6C6.4,12.8,32.1,4.9,37.5,3.2z"/>
</g>
</svg>
